<svg width="400" height="400" viewBox="0 0 400 400" fill="none" xmlns="http://www.w3.org/2000/svg">
  <rect width="400" height="400" fill="#FAF6F0"/>
  <text x="200" y="90" text-anchor="middle" font-family="Arial Black, Arial, sans-serif" font-size="64" fill="#181818" font-weight="bold" letter-spacing="2" transform="rotate(8 200,90)">BUILDWISE</text>
  <!-- Brain outline left -->
  <path d="M140 300 Q100 240 140 180 Q130 120 200 120" stroke="#181818" stroke-width="11" fill="none"/>
  <path d="M160 260 Q120 220 160 180" stroke="#181818" stroke-width="11" fill="none"/>
  <path d="M180 240 Q150 210 180 180" stroke="#181818" stroke-width="11" fill="none"/>
  <!-- Brain outline right with circuits -->
  <path d="M200 120 Q270 120 260 180 Q300 240 260 300" stroke="#181818" stroke-width="11" fill="none"/>
  <!-- Circuit lines -->
  <g stroke="#FF9800" stroke-width="8" stroke-linecap="round">
    <line x1="240" y1="210" x2="280" y2="200"/>
    <circle cx="280" cy="200" r="6" fill="#FF9800"/>
    <line x1="240" y1="230" x2="285" y2="250"/>
    <circle cx="285" cy="250" r="6" fill="#FF9800"/>
    <line x1="220" y1="250" x2="250" y2="285"/>
    <circle cx="250" cy="285" r="6" fill="#FF9800"/>
    <line x1="200" y1="258" x2="200" y2="300"/>
    <circle cx="200" cy="300" r="6" fill="#FF9800"/>
  </g>
  <!-- AI chip -->
  <rect x="165" y="200" width="70" height="50" rx="10" fill="#FF9800" stroke="#181818" stroke-width="8"/>
  <text x="200" y="237" text-anchor="middle" font-family="Arial Black, Arial, sans-serif" font-size="32" fill="#181818" font-weight="bold">AI</text>
  <!-- Hardhat -->
  <ellipse cx="200" cy="145" rx="70" ry="42" fill="#FF9800" stroke="#181818" stroke-width="10"/>
  <path d="M130 147 Q140 110 200 110 Q260 110 270 147" stroke="#181818" stroke-width="9" fill="none"/>
  <path d="M170 107 L170 147" stroke="#181818" stroke-width="7"/>
  <path d="M200 105 L200 147" stroke="#181818" stroke-width="7"/>
  <path d="M230 107 L230 147" stroke="#181818" stroke-width="7"/>
</svg>
